<?xml version="1.0" standalone="no"?><!DOCTYPE svg PUBLIC "-//W3C//DTD SVG 1.1//EN" "http://www.w3.org/Graphics/SVG/1.1/DTD/svg11.dtd"><svg t="1698224055456" class="icon" viewBox="0 0 1024 1024" version="1.1" xmlns="http://www.w3.org/2000/svg" p-id="11117" xmlns:xlink="http://www.w3.org/1999/xlink" width="32" height="32"><path d="M512 1024A512 512 0 1 0 512 0a512 512 0 0 0 0 1024zM512 96a416 416 0 1 1 0 832 416 416 0 0 1 0-832zM800 256c17.6 0 32 14.4 32 32V384c0 35.2-28.8 64-64 64h-128c-35.2 0-64-28.8-64-64H448c0 35.2-28.8 64-64 64H256c-35.2 0-64-28.8-64-64V288c0-17.6 14.4-32 32-32h192c17.6 0 32 14.4 32 32V320h128v-32c0-17.6 14.4-32 32-32h192zM512 768a255.744 255.744 0 0 0 219.52-124.288l54.848 32.96a319.744 319.744 0 0 1-409.984 125.248l33.152-55.296c31.36 13.696 65.984 21.376 102.4 21.376z" p-id="11118"></path></svg>