<?xml version="1.0" standalone="no"?><!DOCTYPE svg PUBLIC "-//W3C//DTD SVG 1.1//EN" "http://www.w3.org/Graphics/SVG/1.1/DTD/svg11.dtd"><svg t="1698223989595" class="icon" viewBox="0 0 1024 1024" version="1.1" xmlns="http://www.w3.org/2000/svg" p-id="10963" xmlns:xlink="http://www.w3.org/1999/xlink" width="32" height="32"><path d="M512 0c-282.784 0-512 229.216-512 512s229.216 512 512 512c282.784 0 512-229.216 512-512s-229.216-512-512-512zM512 832c-48.448 0-94.4-10.784-135.552-30.08l33.152-55.264c31.36 13.696 65.952 21.344 102.368 21.344 93.216 0 174.784-49.824 219.552-124.288l54.88 32.928c-55.968 93.056-157.92 155.36-274.432 155.36zM832 384c0 35.2-28.8 64-64 64l-128 0c-35.2 0-64-28.8-64-64l-128 0c0 35.2-28.8 64-64 64l-128 0c-35.2 0-64-28.8-64-64l0-96c0-17.6 14.4-32 32-32l192 0c17.6 0 32 14.4 32 32l0 32 128 0 0-32c0-17.6 14.4-32 32-32l192 0c17.6 0 32 14.4 32 32l0 96z" fill="#444444" p-id="10964"></path></svg>